Coordinates
version=1
nRows=7
nColumns=40
inDegrees=yes

Units are S.I. units (second, meters, Newtons, ...)
Angles are in degrees.

endheader
time	pelvis_tilt	pelvis_list	pelvis_rotation	pelvis_tx	pelvis_ty	pelvis_tz	hip_flexion_r	hip_adduction_r	hip_rotation_r	knee_angle_r	knee_angle_r_beta	ankle_angle_r	subtalar_angle_r	mtp_angle_r	hip_flexion_l	hip_adduction_l	hip_rotation_l	knee_angle_l	knee_angle_l_beta	ankle_angle_l	subtalar_angle_l	mtp_angle_l	lumbar_extension	lumbar_bending	lumbar_rotation	arm_flex_r	arm_add_r	arm_rot_r	elbow_flex_r	pro_sup_r	wrist_flex_r	wrist_dev_r	arm_flex_l	arm_add_l	arm_rot_l	elbow_flex_l	pro_sup_l	wrist_flex_l	wrist_dev_l
     38.85500000	     -3.98005987	     -6.81512632	      5.81290245	      1.09264590	      0.91465024	      0.48898346	     -5.05815931	      6.67344062	    -19.27526323	      6.55479890	      6.55479890	     16.99916764	      6.71989168	     -4.70522245	     34.26903661	     -9.26476435	     -5.78439190	     18.06611861	     18.06611861	      3.76813636	     -7.71949483	      9.69871073	     -7.08904376	      7.58473788	      5.11593459	     43.17220003	    -16.46347117	    -10.94973403	     92.48607712	     44.73934783	      0.00000000	      0.00000000	    -17.80632583	     -6.63774323	     10.41767527	     22.11315502	     44.48418575	      0.00000000	      0.00000000
     38.86621429	     -4.18964751	     -6.62657298	      5.48065232	      1.09379914	      0.91333709	      0.48692065	     -5.28853684	      6.17144681	    -19.14414547	      7.20747712	      7.20747712	     17.92765653	      7.02744078	     -3.50933111	     33.90592405	     -8.83349954	     -5.49073335	     18.71258274	     18.71258274	      2.23535812	     -9.60481154	      8.22670751	     -6.82024572	      7.40136667	      5.19872777	     44.02207985	    -16.55691780	    -10.47999717	     94.87304605	     44.68206333	      0.00000000	      0.00000000	    -19.41694379	     -6.65294768	     10.32565126	     23.23588554	     44.49856793	      0.00000000	      0.00000000
     38.87742857	     -4.28701490	     -6.48131476	      5.18020016	      1.09507730	      0.91220228	      0.48474832	     -5.73753668	      5.76492283	    -18.88187846	      7.61104408	      7.61104408	     18.31666591	      7.08447391	     -3.43084761	     33.68441540	     -8.59557011	     -5.52176417	     19.91600059	     19.91600059	      1.68517616	    -10.51289843	      8.04014724	     -6.59572050	      7.31367386	      5.28219191	     45.13086450	    -16.36829882	    -10.45651352	     95.85236323	     44.65971849	      0.00000000	      0.00000000	    -20.36885327	     -6.49931113	     10.38211023	     22.99405790	     44.47848318	      0.00000000	      0.00000000
     38.88864286	     -4.43515827	     -6.33126986	      4.82968598	      1.09639189	      0.91117267	      0.48259379	     -6.00840744	      5.29167084	    -18.62823727	      8.25672923	      8.25672923	     18.77442732	      7.13552640	     -3.24873588	     33.48125305	     -8.32746122	     -5.26907306	     21.01799499	     21.01799499	      1.14278275	    -11.80332047	      7.79739703	     -6.35876081	      7.16145529	      5.13456217	     46.05119014	    -16.02577490	    -10.25839949	     97.30226612	     44.61827090	      0.00000000	      0.00000000	    -21.34295160	     -6.29626053	     10.44661483	     22.85822356	     44.45816094	      0.00000000	      0.00000000
     38.89985714	     -4.53312114	     -6.09936234	      4.54447924	      1.09775438	      0.91050744	      0.48012241	     -6.33074902	      4.71127578	    -18.40610276	      8.90869204	      8.90869204	     19.13128602	      7.15284271	     -3.08693636	     33.21271690	     -7.96736435	     -5.02752034	     22.03846301	     22.03846301	      0.77303852	    -12.91837176	      7.58450061	     -6.15443897	      6.97375613	      5.07896171	     46.68625655	    -15.83566947	    -10.09266916	     98.51570277	     44.58353073	      0.00000000	      0.00000000	    -22.05420064	     -6.10628646	     10.49829417	     22.78236440	     44.44370380	      0.00000000	      0.00000000
     38.91107143	     -4.66901162	     -5.86054999	      4.22086569	      1.09927568	      0.91027579	      0.47764018	     -6.74207469	      4.15604536	    -18.11331728	      9.26964060	      9.26964060	     19.16353582	      7.20897515	     -3.03249688	     32.85158035	     -7.67453039	     -5.00499730	     22.79276713	     22.79276713	      0.81129338	    -13.49212604	      7.42518524	     -5.79901700	      6.73514524	      5.16218748	     47.01819349	    -15.83513795	    -10.07554883	     99.02536268	     44.57017825	      0.00000000	      0.00000000	    -22.68747808	     -5.98280667	     10.52178409	     22.60169381	     44.43035237	      0.00000000	      0.00000000
     38.92228571	     -4.81457849	     -5.63037616	      3.98329984	      1.10037918	      0.91007862	      0.47489490	     -6.53400895	      3.38199049	    -18.05887844	     10.83988714	     10.83988714	     19.76388552	      7.15900339	     -2.46283800	     32.69600822	     -7.23245676	     -4.39540348	     23.70977762	     23.70977762	      0.60579321	    -15.10967716	      7.01449892	     -5.71439034	      6.57299133	      5.23358044	     46.81070282	    -16.03982748	     -9.88589871	    102.04747981	     44.50676847	      0.00000000	      0.00000000	    -22.85299624	     -5.89763748	     10.74286902	     22.70769655	     44.43956528	      0.00000000	      0.00000000
